<svg width="1920" height="650" viewBox="0 0 1920 650" fill="none" xmlns="http://www.w3.org/2000/svg">
<path d="M0 0L1920 0V588.283L0 650V0Z" fill="#445FFC"/>
<path d="M1575.19 334.441H1390.81C1383.57 334.441 1377.66 329.081 1377.66 322.517V212.419C1377.66 205.855 1383.57 200.495 1390.81 200.495H1575.19C1582.43 200.495 1588.35 205.855 1588.35 212.419V322.463C1588.35 329.081 1582.43 334.441 1575.19 334.441Z" fill="#F2F6FB"/>
<path d="M1377.72 199.774C1377.72 193.108 1383.12 187.704 1389.78 187.704H1576.22C1582.88 187.704 1588.29 193.111 1588.29 199.774V213.648C1506.05 213.648 1459.95 213.648 1377.72 213.648V199.774Z" fill="#E1E5F0"/>
<path d="M1410.15 262.521H1433.38C1435.29 262.521 1436.84 264.074 1436.84 265.99C1436.84 267.906 1435.29 269.459 1433.38 269.459H1410.15C1408.23 269.459 1406.68 267.906 1406.68 265.99C1406.68 264.074 1408.23 262.521 1410.15 262.521ZM1410.15 301.136H1433.38C1435.29 301.136 1436.84 302.689 1436.84 304.605C1436.84 306.521 1435.29 308.074 1433.38 308.074H1410.15C1408.23 308.074 1406.68 306.521 1406.68 304.605C1406.68 302.689 1408.23 301.136 1410.15 301.136ZM1445.74 262.521H1468.97C1470.89 262.521 1472.44 264.074 1472.44 265.99C1472.44 267.906 1470.89 269.459 1468.97 269.459H1445.74C1443.83 269.459 1442.27 267.906 1442.27 265.99C1442.27 264.074 1443.83 262.521 1445.74 262.521ZM1445.74 301.136H1468.97C1470.89 301.136 1472.44 302.689 1472.44 304.605C1472.44 306.521 1470.89 308.074 1468.97 308.074H1445.74C1443.83 308.074 1442.27 306.521 1442.27 304.605C1442.27 302.689 1443.83 301.136 1445.74 301.136ZM1481.34 262.521H1504.57C1506.49 262.521 1508.04 264.074 1508.04 265.99C1508.04 267.906 1506.49 269.459 1504.57 269.459H1481.34C1479.43 269.459 1477.87 267.906 1477.87 265.99C1477.87 264.074 1479.43 262.521 1481.34 262.521ZM1481.34 301.136H1504.57C1506.49 301.136 1508.04 302.689 1508.04 304.605C1508.04 306.521 1506.49 308.074 1504.57 308.074H1481.34C1479.43 308.074 1477.87 306.521 1477.87 304.605C1477.87 302.689 1479.43 301.136 1481.34 301.136ZM1410.15 243.213H1453.29C1455.2 243.213 1456.76 244.767 1456.76 246.683C1456.76 248.599 1455.2 250.152 1453.29 250.152H1410.15C1408.23 250.152 1406.68 248.599 1406.68 246.683C1406.68 244.767 1408.23 243.213 1410.15 243.213ZM1507.89 243.213H1556.46C1558.38 243.213 1559.93 244.767 1559.93 246.683C1559.93 248.599 1558.38 250.152 1556.46 250.152H1507.89C1505.97 250.152 1504.42 248.599 1504.42 246.683C1504.42 244.767 1505.97 243.213 1507.89 243.213ZM1507.89 281.828H1556.46C1558.38 281.828 1559.93 283.381 1559.93 285.297C1559.93 287.214 1558.38 288.767 1556.46 288.767H1507.89C1505.97 288.767 1504.42 287.214 1504.42 285.297C1504.42 283.381 1505.97 281.828 1507.89 281.828ZM1465.65 281.828H1474.4C1476.32 281.828 1477.87 283.381 1477.87 285.297C1477.87 287.214 1476.32 288.767 1474.4 288.767H1465.65C1463.74 288.767 1462.19 287.214 1462.19 285.297C1462.19 283.381 1463.74 281.828 1465.65 281.828ZM1486.77 243.213H1495.52C1497.44 243.213 1498.99 244.767 1498.99 246.683C1498.99 248.599 1497.44 250.152 1495.52 250.152H1486.77C1484.86 250.152 1483.3 248.599 1483.3 246.683C1483.3 244.767 1484.86 243.213 1486.77 243.213ZM1516.94 262.521H1556.46C1558.38 262.521 1559.93 264.074 1559.93 265.99C1559.93 267.906 1558.38 269.459 1556.46 269.459H1516.94C1515.02 269.459 1513.47 267.906 1513.47 265.99C1513.47 264.074 1515.02 262.521 1516.94 262.521Z" fill="#E1E5F0"/>
<path d="M1410.15 281.828H1453.29C1455.2 281.828 1456.76 283.381 1456.76 285.297C1456.76 287.213 1455.2 288.767 1453.29 288.767H1410.15C1408.23 288.767 1406.68 287.213 1406.68 285.297C1406.68 283.381 1408.23 281.828 1410.15 281.828ZM1486.77 281.828H1495.52C1497.44 281.828 1498.99 283.381 1498.99 285.297C1498.99 287.213 1497.44 288.767 1495.52 288.767H1486.77C1484.86 288.767 1483.3 287.213 1483.3 285.297C1483.3 283.381 1484.86 281.828 1486.77 281.828Z" fill="#445FFC"/>
<path d="M1465.65 243.213H1474.4C1476.32 243.213 1477.87 244.766 1477.87 246.682C1477.87 248.599 1476.32 250.152 1474.4 250.152H1465.65C1463.74 250.152 1462.19 248.599 1462.19 246.682C1462.19 244.766 1463.74 243.213 1465.65 243.213ZM1516.94 301.135H1556.46C1558.38 301.135 1559.93 302.689 1559.93 304.605C1559.93 306.521 1558.38 308.074 1556.46 308.074H1516.94C1515.02 308.074 1513.47 306.521 1513.47 304.605C1513.47 302.689 1515.02 301.135 1516.94 301.135Z" fill="#33CC33"/>
<path d="M1408.49 169H1333.07C1326.4 169 1321 174.403 1321 181.067V219.079C1321 225.743 1326.4 231.146 1333.07 231.146H1408.49C1415.15 231.146 1420.55 225.743 1420.55 219.079V181.067C1420.55 174.403 1415.15 169 1408.49 169Z" fill="white"/>
<path d="M1353.18 185.894L1333.07 202.079L1354.18 213.648" stroke="#445FFC" stroke-width="4.35294" stroke-linecap="round" stroke-linejoin="round"/>
<path d="M1386.49 213.648L1406.68 199.801L1385.56 185.894" stroke="#445FFC" stroke-width="4.35294" stroke-linecap="round" stroke-linejoin="round"/>
<path d="M1365.04 220.518L1374.24 180.086" stroke="#445FFC" stroke-width="4.35294" stroke-linecap="round" stroke-linejoin="round"/>
<path d="M1442.41 368H1219.32C1212.51 368 1207 373.515 1207 380.318V541.682C1207 548.485 1212.51 554 1219.32 554H1442.41C1449.21 554 1454.73 548.485 1454.73 541.682V380.318C1454.73 373.515 1449.21 368 1442.41 368Z" fill="#F2F6FB"/>
<path d="M1244.25 539.529C1231.86 539.529 1221.83 529.389 1221.83 516.88C1221.83 504.372 1231.86 494.232 1244.25 494.232C1256.63 494.232 1266.67 504.372 1266.67 516.88C1266.67 529.389 1256.63 539.529 1244.25 539.529ZM1244.3 516.785C1245.95 516.785 1247.29 515.448 1247.29 513.798C1247.29 512.148 1245.95 510.811 1244.3 510.811C1242.64 510.811 1241.3 512.148 1241.3 513.798C1241.3 515.448 1242.64 516.785 1244.3 516.785ZM1244.3 518.279C1241.3 518.279 1238.87 520.703 1238.87 523.693H1249.73C1249.73 520.703 1247.3 518.279 1244.3 518.279Z" fill="#D8DEED"/>
<path d="M1221.83 408.721C1221.83 407.357 1222.93 406.252 1224.29 406.252H1381.5C1382.86 406.252 1383.96 407.359 1383.96 408.721V476.107C1383.96 477.47 1382.86 478.575 1381.5 478.575H1224.29C1222.93 478.575 1221.83 477.468 1221.83 476.107V408.721ZM1282.75 512.661H1406.49C1408.98 512.661 1410.99 514.673 1410.99 517.155C1410.99 519.637 1408.98 521.649 1406.49 521.649H1282.75C1280.27 521.649 1278.26 519.637 1278.26 517.155C1278.26 514.673 1280.27 512.661 1282.75 512.661ZM1282.75 527.266H1428.99C1431.47 527.266 1433.49 529.278 1433.49 531.76C1433.49 534.242 1431.47 536.254 1428.99 536.254H1282.75C1280.27 536.254 1278.26 534.242 1278.26 531.76C1278.26 529.278 1280.27 527.266 1282.75 527.266ZM1282.75 498.057H1375C1377.48 498.057 1379.49 500.068 1379.49 502.55C1379.49 505.032 1377.48 507.044 1375 507.044H1282.75C1280.27 507.044 1278.26 505.032 1278.26 502.55C1278.26 500.068 1280.27 498.057 1282.75 498.057ZM1207 378.519C1207 372.71 1211.71 368 1217.52 368H1444.69C1450.5 368 1455.21 372.708 1455.21 378.519V389.039H1207V378.519Z" fill="#E1E5F0"/>
<path d="M1403.13 462.755H1432.35C1436.72 462.755 1440.26 466.297 1440.26 470.666C1440.26 475.034 1436.72 478.576 1432.35 478.576H1403.13C1398.76 478.576 1395.22 475.034 1395.22 470.666C1395.22 466.297 1398.76 462.755 1403.13 462.755Z" fill="#445FFC"/>
<path d="M1221.11 383.301C1223.62 383.301 1225.65 381.267 1225.65 378.759C1225.65 376.25 1223.62 374.216 1221.11 374.216C1218.6 374.216 1216.56 376.25 1216.56 378.759C1216.56 381.267 1218.6 383.301 1221.11 383.301Z" fill="#FF5645"/>
<path d="M1235.93 383.301C1238.44 383.301 1240.48 381.267 1240.48 378.759C1240.48 376.25 1238.44 374.216 1235.93 374.216C1233.42 374.216 1231.39 376.25 1231.39 378.759C1231.39 381.267 1233.42 383.301 1235.93 383.301Z" fill="#FFCB3D"/>
<path d="M1251.24 383.301C1253.75 383.301 1255.78 381.267 1255.78 378.759C1255.78 376.25 1253.75 374.216 1251.24 374.216C1248.73 374.216 1246.69 376.25 1246.69 378.759C1246.69 381.267 1248.73 383.301 1251.24 383.301Z" fill="#3ABF7C"/>
</svg>
