<svg width="1919" height="1119" viewBox="0 0 1919 1119" fill="none" xmlns="http://www.w3.org/2000/svg">
<rect width="1920" height="1119" fill="#445FFC"/>
<path d="M1677.31 627.354H1465.85C1459.45 627.354 1454.26 632.542 1454.26 638.941V791.887C1454.26 798.286 1459.45 803.474 1465.85 803.474H1677.31C1683.71 803.474 1688.9 798.286 1688.9 791.887V638.941C1688.9 632.542 1683.71 627.354 1677.31 627.354Z" fill="#F2F6FB" fill-opacity="0.15"/>
<path d="M1574.23 677.304L1611.43 688.734L1650.71 710.489L1653.32 705.949L1613.55 683.924L1573.57 671.64L1533.25 694.895L1493.03 708.491L1494.76 713.419L1535.48 699.653L1574.23 677.304Z" fill="#D8DEED"/>
<path d="M1492.33 717.837C1488.68 717.837 1485.73 714.95 1485.73 711.389C1485.73 707.829 1488.68 704.942 1492.33 704.942C1495.97 704.942 1498.92 707.829 1498.92 711.389C1498.92 714.95 1495.97 717.837 1492.33 717.837ZM1531.89 703.1C1528.25 703.1 1525.3 700.214 1525.3 696.653C1525.3 693.093 1528.25 690.206 1531.89 690.206C1535.53 690.206 1538.49 693.093 1538.49 696.653C1538.49 700.214 1535.53 703.1 1531.89 703.1ZM1571.46 680.996C1567.82 680.996 1564.86 678.109 1564.86 674.549C1564.86 670.988 1567.82 668.102 1571.46 668.102C1575.1 668.102 1578.05 670.988 1578.05 674.549C1578.05 678.109 1575.1 680.996 1571.46 680.996ZM1611.02 692.048C1607.38 692.048 1604.43 689.162 1604.43 685.601C1604.43 682.04 1607.38 679.154 1611.02 679.154C1614.66 679.154 1617.62 682.04 1617.62 685.601C1617.62 689.162 1614.66 692.048 1611.02 692.048ZM1650.59 715.995C1646.95 715.995 1643.99 713.108 1643.99 709.547C1643.99 705.987 1646.95 703.1 1650.59 703.1C1654.23 703.1 1657.18 705.987 1657.18 709.547C1657.18 713.108 1654.23 715.995 1650.59 715.995Z" fill="#33CC33"/>
<path d="M1590 744.041V774.536C1590 775.763 1589 776.762 1587.78 776.762H1586.58C1585.35 776.762 1584.35 775.765 1584.35 774.536V744.041C1584.35 742.814 1585.35 741.815 1586.58 741.815H1587.78C1589 741.815 1590 742.812 1590 744.041ZM1578.7 749.557V774.538C1578.7 775.766 1577.71 776.762 1576.48 776.762H1575.28C1574.05 776.762 1573.05 775.766 1573.05 774.538V749.557C1573.05 748.329 1574.05 747.333 1575.28 747.333H1576.48C1577.7 747.333 1578.7 748.329 1578.7 749.557ZM1567.4 733.005V774.536C1567.4 775.77 1566.41 776.762 1565.18 776.762H1563.98C1562.75 776.762 1561.75 775.765 1561.75 774.536V733.005C1561.75 731.772 1562.75 730.779 1563.98 730.779H1565.18C1566.41 730.779 1567.4 731.776 1567.4 733.005ZM1556.1 744.041V774.536C1556.1 775.763 1555.11 776.762 1553.88 776.762H1552.68C1551.45 776.762 1550.46 775.765 1550.46 774.536V744.041C1550.46 742.814 1551.45 741.815 1552.68 741.815H1553.88C1555.11 741.815 1556.1 742.812 1556.1 744.041ZM1544.81 727.491V774.532C1544.81 775.768 1543.81 776.762 1542.58 776.762H1541.38C1540.15 776.762 1539.16 775.764 1539.16 774.532V727.491C1539.16 726.256 1540.15 725.262 1541.38 725.262H1542.58C1543.81 725.262 1544.81 726.26 1544.81 727.491ZM1533.51 733.005V774.536C1533.51 775.77 1532.51 776.762 1531.28 776.762H1530.08C1528.86 776.762 1527.86 775.765 1527.86 774.536V733.005C1527.86 731.772 1528.85 730.779 1530.08 730.779H1531.28C1532.51 730.779 1533.51 731.776 1533.51 733.005ZM1522.21 723.814V774.53C1522.21 775.769 1521.21 776.762 1519.99 776.762H1518.79C1517.56 776.762 1516.56 775.763 1516.56 774.53V723.814C1516.56 722.576 1517.56 721.583 1518.79 721.583H1519.99C1521.21 721.583 1522.21 722.582 1522.21 723.814ZM1510.91 720.131V774.535C1510.91 775.765 1509.92 776.762 1508.69 776.762H1507.49C1506.26 776.762 1505.26 775.765 1505.26 774.535V720.131C1505.26 718.901 1506.26 717.904 1507.49 717.904H1508.69C1509.91 717.904 1510.91 718.901 1510.91 720.131ZM1499.61 733.005V774.536C1499.61 775.77 1498.62 776.762 1497.39 776.762H1496.19C1494.96 776.762 1493.96 775.765 1493.96 774.536V733.005C1493.96 731.772 1494.96 730.779 1496.19 730.779H1497.39C1498.62 730.779 1499.61 731.776 1499.61 733.005ZM1657.79 744.041V774.536C1657.79 775.763 1656.79 776.762 1655.57 776.762H1654.37C1653.14 776.762 1652.14 775.765 1652.14 774.536V744.041C1652.14 742.814 1653.14 741.815 1654.37 741.815H1655.57C1656.79 741.815 1657.79 742.812 1657.79 744.041ZM1646.49 727.491V774.532C1646.49 775.768 1645.5 776.762 1644.27 776.762H1643.07C1641.84 776.762 1640.84 775.764 1640.84 774.532V727.491C1640.84 726.256 1641.84 725.262 1643.07 725.262H1644.27C1645.5 725.262 1646.49 726.26 1646.49 727.491ZM1635.19 733.005V774.536C1635.19 775.77 1634.2 776.762 1632.97 776.762H1631.77C1630.54 776.762 1629.54 775.765 1629.54 774.536V733.005C1629.54 731.772 1630.54 730.779 1631.77 730.779H1632.97C1634.2 730.779 1635.19 731.776 1635.19 733.005ZM1623.9 723.814V774.53C1623.9 775.769 1622.9 776.762 1621.67 776.762H1620.47C1619.24 776.762 1618.25 775.763 1618.25 774.53V723.814C1618.25 722.576 1619.24 721.583 1620.47 721.583H1621.67C1622.9 721.583 1623.9 722.582 1623.9 723.814ZM1612.6 720.131V774.535C1612.6 775.765 1611.6 776.762 1610.37 776.762H1609.17C1607.94 776.762 1606.95 775.765 1606.95 774.535V720.131C1606.95 718.901 1607.94 717.904 1609.17 717.904H1610.37C1611.6 717.904 1612.6 718.901 1612.6 720.131ZM1601.3 733.005V774.536C1601.3 775.77 1600.3 776.762 1599.07 776.762H1597.87C1596.65 776.762 1595.65 775.765 1595.65 774.536V733.005C1595.65 731.772 1596.65 730.779 1597.87 730.779H1599.07C1600.3 730.779 1601.3 731.776 1601.3 733.005Z" fill="#D8DEED"/>
<path d="M1454.26 637.315C1454.26 631.813 1458.73 627.354 1464.22 627.354H1678.94C1684.44 627.354 1688.9 631.812 1688.9 637.315V647.275H1454.26V637.315Z" fill="#E1E5F0"/>
<path d="M1467.92 641.842C1470.34 641.842 1472.31 639.916 1472.31 637.541C1472.31 635.166 1470.34 633.24 1467.92 633.24C1465.49 633.24 1463.52 635.166 1463.52 637.541C1463.52 639.916 1465.49 641.842 1467.92 641.842Z" fill="#FF5645"/>
<path d="M1482.26 641.842C1484.69 641.842 1486.66 639.916 1486.66 637.541C1486.66 635.166 1484.69 633.24 1482.26 633.24C1479.83 633.24 1477.86 635.166 1477.86 637.541C1477.86 639.916 1479.83 641.842 1482.26 641.842Z" fill="#445FFC"/>
<path d="M1497.07 641.842C1499.5 641.842 1501.47 639.916 1501.47 637.541C1501.47 635.165 1499.5 633.24 1497.07 633.24C1494.64 633.24 1492.67 635.165 1492.67 637.541C1492.67 639.916 1494.64 641.842 1497.07 641.842Z" fill="#3ABF7C"/>
<path d="M270 420.351C270 417.948 271.95 416 274.352 416H313.354L329.2 431.823V481.73C329.2 484.134 327.247 486.083 324.847 486.083H274.353C271.949 486.083 270 484.135 270 481.732V420.351Z" fill="#F2F6FB"/>
<path d="M311.073 454.73L291.336 464.66C291.185 464.736 291.002 464.675 290.927 464.525C290.905 464.482 290.894 464.435 290.894 464.388V444.527C290.894 444.359 291.03 444.223 291.199 444.223C291.246 444.223 291.293 444.234 291.336 444.255L311.073 454.185C311.223 454.261 311.284 454.444 311.208 454.595C311.179 454.653 311.131 454.7 311.073 454.73Z" fill="#33CC33"/>
<path d="M313.354 416L329.2 431.822L314.333 434.5C311.966 434.927 310.376 433.354 310.783 430.983L313.354 416Z" fill="#33CC33"/>
<path d="M311 469.351C311 466.948 312.95 465 315.352 465H354.354L370.2 480.823V530.73C370.2 533.134 368.247 535.082 365.847 535.082H315.353C312.949 535.082 311 533.135 311 530.732V469.351Z" fill="#F2F6FB"/>
<path d="M354.354 465L370.2 480.822L355.333 483.5C352.966 483.927 351.376 482.354 351.783 479.983L354.354 465Z" fill="#33CC33"/>
<path d="M324.494 513.102V494.622C324.494 494.246 324.656 493.889 324.937 493.641C327.159 491.687 329.871 490.868 333.075 491.183C336.495 491.52 338.762 493.256 339.877 496.389V516.59C339.877 516.831 339.682 517.026 339.441 517.026C339.305 517.026 339.177 516.962 339.095 516.854C337.558 514.838 335.816 513.576 333.87 513.07C331.946 512.57 329.427 512.981 326.31 514.304C325.647 514.586 324.88 514.276 324.598 513.613C324.529 513.451 324.494 513.277 324.494 513.102ZM356.892 513.102C356.892 513.277 356.857 513.451 356.788 513.613C356.506 514.276 355.74 514.586 355.076 514.304C351.96 512.981 349.44 512.57 347.517 513.07C345.57 513.576 343.828 514.838 342.291 516.854C342.209 516.962 342.081 517.026 341.945 517.026C341.705 517.026 341.51 516.831 341.51 516.59V496.389C342.624 493.256 344.891 491.52 348.311 491.183C351.515 490.868 354.228 491.687 356.449 493.641C356.731 493.889 356.892 494.246 356.892 494.622V513.102Z" fill="#33CC33"/>
</svg>
