<svg width="268" height="166" viewBox="0 0 268 166" fill="none" xmlns="http://www.w3.org/2000/svg">
<path d="M254.194 165.441H69.8083C62.568 165.441 56.6551 160.081 56.6551 153.517V43.4187C56.6551 36.8554 62.568 31.4954 69.8083 31.4954H254.194C261.434 31.4954 267.347 36.8554 267.347 43.4187V153.463C267.347 160.081 261.434 165.441 254.194 165.441Z" fill="#F2F6FB"/>
<path d="M56.7157 30.7743C56.7157 24.1081 62.1191 18.7041 68.7837 18.7041H255.219C261.884 18.7041 267.287 24.1113 267.287 30.7743V44.6485H56.7157V30.7743Z" fill="#E1E5F0"/>
<path d="M89.1461 93.5207H112.375C114.291 93.5207 115.845 95.074 115.845 96.99C115.845 98.9061 114.291 100.459 112.375 100.459H89.1461C87.23 100.459 85.6768 98.9061 85.6768 96.99C85.6768 95.074 87.23 93.5207 89.1461 93.5207ZM89.1461 132.136H112.375C114.291 132.136 115.845 133.689 115.845 135.605C115.845 137.521 114.291 139.074 112.375 139.074H89.1461C87.23 139.074 85.6768 137.521 85.6768 135.605C85.6768 133.689 87.23 132.136 89.1461 132.136ZM124.744 93.5207H147.973C149.889 93.5207 151.443 95.074 151.443 96.99C151.443 98.9061 149.889 100.459 147.973 100.459H124.744C122.828 100.459 121.275 98.9061 121.275 96.99C121.275 95.074 122.828 93.5207 124.744 93.5207ZM124.744 132.136H147.973C149.889 132.136 151.443 133.689 151.443 135.605C151.443 137.521 149.889 139.074 147.973 139.074H124.744C122.828 139.074 121.275 137.521 121.275 135.605C121.275 133.689 122.828 132.136 124.744 132.136ZM160.342 93.5207H183.571C185.487 93.5207 187.041 95.074 187.041 96.99C187.041 98.9061 185.487 100.459 183.571 100.459H160.342C158.426 100.459 156.873 98.9061 156.873 96.99C156.873 95.074 158.426 93.5207 160.342 93.5207ZM160.342 132.136H183.571C185.487 132.136 187.041 133.689 187.041 135.605C187.041 137.521 185.487 139.074 183.571 139.074H160.342C158.426 139.074 156.873 137.521 156.873 135.605C156.873 133.689 158.426 132.136 160.342 132.136ZM89.1461 74.2133H132.286C134.202 74.2133 135.755 75.7666 135.755 77.6826C135.755 79.5987 134.202 81.1519 132.286 81.1519H89.1461C87.23 81.1519 85.6768 79.5987 85.6768 77.6826C85.6768 75.7666 87.23 74.2133 89.1461 74.2133ZM186.89 74.2133H235.46C237.376 74.2133 238.929 75.7666 238.929 77.6826C238.929 79.5987 237.376 81.1519 235.46 81.1519H186.89C184.974 81.1519 183.421 79.5987 183.421 77.6826C183.421 75.7666 184.974 74.2133 186.89 74.2133ZM186.89 112.828H235.46C237.376 112.828 238.929 114.381 238.929 116.297C238.929 118.214 237.376 119.767 235.46 119.767H186.89C184.974 119.767 183.421 118.214 183.421 116.297C183.421 114.381 184.974 112.828 186.89 112.828ZM144.655 112.828H153.404C155.32 112.828 156.873 114.381 156.873 116.297C156.873 118.214 155.32 119.767 153.404 119.767H144.655C142.739 119.767 141.186 118.214 141.186 116.297C141.186 114.381 142.739 112.828 144.655 112.828ZM165.772 74.2133H174.521C176.437 74.2133 177.99 75.7666 177.99 77.6826C177.99 79.5987 176.437 81.1519 174.521 81.1519H165.772C163.856 81.1519 162.303 79.5987 162.303 77.6826C162.303 75.7666 163.856 74.2133 165.772 74.2133ZM195.94 93.5207H235.46C237.376 93.5207 238.929 95.074 238.929 96.99C238.929 98.9061 237.376 100.459 235.46 100.459H195.94C194.024 100.459 192.471 98.9061 192.471 96.99C192.471 95.074 194.024 93.5207 195.94 93.5207Z" fill="#E1E5F0"/>
<path d="M89.1459 112.828H132.286C134.202 112.828 135.755 114.381 135.755 116.297C135.755 118.213 134.202 119.767 132.286 119.767H89.1459C87.2299 119.767 85.6766 118.213 85.6766 116.297C85.6766 114.381 87.2299 112.828 89.1459 112.828ZM165.772 112.828H174.521C176.437 112.828 177.99 114.381 177.99 116.297C177.99 118.213 176.437 119.767 174.521 119.767H165.772C163.856 119.767 162.303 118.213 162.303 116.297C162.303 114.381 163.856 112.828 165.772 112.828Z" fill="#445FFC"/>
<path d="M144.655 74.2132H153.404C155.32 74.2132 156.873 75.7665 156.873 77.6825C156.873 79.5985 155.32 81.1518 153.404 81.1518H144.655C142.739 81.1518 141.186 79.5985 141.186 77.6825C141.186 75.7665 142.739 74.2132 144.655 74.2132ZM195.94 132.135H235.46C237.376 132.135 238.929 133.689 238.929 135.605C238.929 137.521 237.376 139.074 235.46 139.074H195.94C194.024 139.074 192.471 137.521 192.471 135.605C192.471 133.689 194.024 132.135 195.94 132.135Z" fill="#33CC33"/>
<path d="M87.4868 0H12.0671C5.40264 0 0 5.40264 0 12.0671V50.0786C0 56.7431 5.40264 62.1458 12.0671 62.1458H87.4868C94.1513 62.1458 99.5539 56.7431 99.5539 50.0786V12.0671C99.5539 5.40264 94.1513 0 87.4868 0Z" fill="white"/>
<path d="M32.1826 16.894L12.067 33.0791L33.1845 44.6485" stroke="#445FFC" stroke-width="4.35294" stroke-linecap="round" stroke-linejoin="round"/>
<path d="M65.4874 44.6485L85.6766 30.8012L64.5591 16.894" stroke="#445FFC" stroke-width="4.35294" stroke-linecap="round" stroke-linejoin="round"/>
<path d="M44.0449 51.5175L53.2355 11.0861" stroke="#445FFC" stroke-width="4.35294" stroke-linecap="round" stroke-linejoin="round"/>
</svg>
