<svg width="409" height="110" viewBox="0 0 409 110" fill="none" xmlns="http://www.w3.org/2000/svg">
<path d="M54.8127 73.8732C51.9283 73.8732 49.2476 73.4151 46.7705 72.4989C44.3273 71.5827 42.2065 70.2933 40.408 68.6305C38.6095 66.9339 37.2013 64.9488 36.1833 62.6752C35.1992 60.4017 34.7072 57.9246 34.7072 55.2439C34.7072 52.5292 35.1992 50.0521 36.1833 47.8125C37.2013 45.5389 38.6095 43.5708 40.408 41.9081C42.2065 40.2114 44.3273 38.905 46.7705 37.9888C49.2476 37.0726 51.9283 36.6145 54.8127 36.6145C57.7309 36.6145 60.4117 37.0726 62.8549 37.9888C65.298 38.905 67.4189 40.2114 69.2173 41.9081C71.0158 43.5708 72.4071 45.5389 73.3911 47.8125C74.4091 50.0521 74.9181 52.5292 74.9181 55.2439C74.9181 57.9246 74.4091 60.4017 73.3911 62.6752C72.4071 64.9488 71.0158 66.9339 69.2173 68.6305C67.4189 70.2933 65.298 71.5827 62.8549 72.4989C60.4117 73.4151 57.7309 73.8732 54.8127 73.8732ZM54.8127 64.1513C55.9325 64.1513 56.9674 63.9477 57.9176 63.5405C58.9016 63.1333 59.75 62.5565 60.4626 61.8099C61.2091 61.0295 61.786 60.0963 62.1932 59.0104C62.6004 57.8906 62.804 56.6351 62.804 55.2439C62.804 53.8526 62.6004 52.614 62.1932 51.5282C61.786 50.4084 61.2091 49.4752 60.4626 48.7287C59.75 47.9482 58.9016 47.3544 57.9176 46.9472C56.9674 46.54 55.9325 46.3364 54.8127 46.3364C53.6929 46.3364 52.6409 46.54 51.6569 46.9472C50.7067 47.3544 49.8584 47.9482 49.1119 48.7287C48.3993 49.4752 47.8394 50.4084 47.4322 51.5282C47.025 52.614 46.8214 53.8526 46.8214 55.2439C46.8214 56.6351 47.025 57.8906 47.4322 59.0104C47.8394 60.0963 48.3993 61.0295 49.1119 61.8099C49.8584 62.5565 50.7067 63.1333 51.6569 63.5405C52.6409 63.9477 53.6929 64.1513 54.8127 64.1513ZM113.284 73.0588L105.649 60.2829L114.912 54.8876L126.823 73.0588H113.284ZM94.0434 73.0588V45.2166H105.547V73.0588H94.0434ZM102.187 63.795V54.9894H112.571V63.795H102.187ZM116.083 60.3847L105.292 59.3667L114.149 45.2166H126.263L116.083 60.3847ZM142.993 73.5678C139.837 73.5678 137.038 72.957 134.595 71.7354C132.185 70.4799 130.285 68.7663 128.894 66.5945C127.503 64.4228 126.807 61.9287 126.807 59.1122C126.807 56.2958 127.503 53.8017 128.894 51.63C130.285 49.4582 132.185 47.7616 134.595 46.54C137.038 45.3184 139.837 44.7076 142.993 44.7076C146.149 44.7076 148.948 45.3184 151.392 46.54C153.835 47.7616 155.735 49.4582 157.092 51.63C158.484 53.8017 159.179 56.2958 159.179 59.1122C159.179 61.9287 158.484 64.4228 157.092 66.5945C155.735 68.7663 153.835 70.4799 151.392 71.7354C148.948 72.957 146.149 73.5678 142.993 73.5678ZM142.993 64.6094C143.842 64.6094 144.605 64.4058 145.284 63.9986C145.962 63.5914 146.505 62.9806 146.912 62.1662C147.32 61.3179 147.523 60.2999 147.523 59.1122C147.523 57.8906 147.32 56.8896 146.912 56.1091C146.505 55.2948 145.962 54.684 145.284 54.2768C144.605 53.8696 143.842 53.666 142.993 53.666C142.145 53.666 141.381 53.8696 140.703 54.2768C140.024 54.684 139.481 55.2948 139.074 56.1091C138.667 56.8896 138.463 57.8906 138.463 59.1122C138.463 60.2999 138.667 61.3179 139.074 62.1662C139.481 62.9806 140.024 63.5914 140.703 63.9986C141.381 64.4058 142.145 64.6094 142.993 64.6094ZM162.738 73.0588V45.2166H174.903L183.76 62.5734H178.975L189.003 45.2166H199.794L199.895 73.0588H189.563L189.512 56.3127L191.293 57.5343L183.607 70.8701H178.772L171.086 56.669L173.071 56.16V73.0588H162.738ZM205.238 73.0588V45.2166H235.116V73.0588H223.664V51.7827L226.158 54.175H214.196L216.69 51.7827V73.0588H205.238ZM256.767 73.0588V68.1215L255.952 66.7981V57.4325C255.952 56.0752 255.528 55.0403 254.68 54.3277C253.866 53.6151 252.525 53.2588 250.659 53.2588C249.403 53.2588 248.131 53.4624 246.841 53.8696C245.552 54.2428 244.449 54.7688 243.533 55.4475L239.868 47.8634C241.497 46.8454 243.448 46.0649 245.722 45.522C247.995 44.979 250.218 44.7076 252.389 44.7076C257.174 44.7076 260.873 45.7765 263.486 47.9143C266.132 50.0521 267.456 53.4454 267.456 58.0942V73.0588H256.767ZM248.877 73.5678C246.604 73.5678 244.704 73.1776 243.177 72.3971C241.65 71.6167 240.496 70.5817 239.715 69.2922C238.935 67.9688 238.545 66.5097 238.545 64.9148C238.545 63.1164 239.003 61.5894 239.919 60.3338C240.835 59.0783 242.226 58.1282 244.093 57.4834C245.993 56.8387 248.385 56.5163 251.27 56.5163H257.072V62.0644H253.102C251.88 62.0644 250.981 62.268 250.404 62.6752C249.861 63.0485 249.59 63.6254 249.59 64.4058C249.59 65.0506 249.827 65.5935 250.303 66.0346C250.812 66.4418 251.49 66.6454 252.339 66.6454C253.119 66.6454 253.832 66.4418 254.476 66.0346C255.155 65.5935 255.647 64.9148 255.952 63.9986L257.429 67.4089C256.987 69.4789 256.054 71.0228 254.629 72.0408C253.204 73.0588 251.287 73.5678 248.877 73.5678ZM272.143 73.0588V45.2166H283.596V54.9894H291.434V45.2166H302.887V73.0588H291.434V63.9986H283.596V73.0588H272.143ZM308.28 73.0588V45.2166H319.733V57.7888L329.353 45.2166H339.94V73.0588H328.488V60.4356L318.918 73.0588H308.28ZM345.312 73.0588V45.2166H356.764V57.7888L366.385 45.2166H376.972V73.0588H365.519V60.4356L355.95 73.0588H345.312Z" fill="#333333"/>
<rect x="8.0196" y="9.47772" width="392.961" height="91.861" stroke="#333333" stroke-width="1.45811" stroke-dasharray="5.1 5.1"/>
<rect x="0.729055" y="2.18715" width="16.0392" height="16.0392" fill="white" stroke="#333333" stroke-width="1.45811"/>
<rect x="0.729055" y="92.59" width="16.0392" height="16.0392" fill="white" stroke="#333333" stroke-width="1.45811"/>
<rect x="392.232" y="92.59" width="16.0392" height="16.0392" fill="white" stroke="#333333" stroke-width="1.45811"/>
<rect x="392.232" y="0.729055" width="16.0392" height="16.0392" fill="white" stroke="#333333" stroke-width="1.45811"/>
</svg>
