<svg width="510" height="110" viewBox="0 0 510 110" fill="none" xmlns="http://www.w3.org/2000/svg">
<rect x="8.27094" y="9.27094" width="437.458" height="92.4581" stroke="#333333" stroke-width="1.45811" stroke-dasharray="5.1 5.1"/>
<rect x="0.729055" y="2.18715" width="16.0392" height="16.0392" fill="white" stroke="#333333" stroke-width="1.45811"/>
<rect x="0.729055" y="92.59" width="16.0392" height="16.0392" fill="white" stroke="#333333" stroke-width="1.45811"/>
<rect x="436.729" y="92.59" width="16.0392" height="16.0392" fill="white" stroke="#333333" stroke-width="1.45811"/>
<rect x="436.729" y="0.729055" width="16.0392" height="16.0392" fill="white" stroke="#333333" stroke-width="1.45811"/>
<path fill-rule="evenodd" clip-rule="evenodd" d="M500.471 95.2421L508.922 103.693C510.36 105.131 510.36 107.484 508.922 108.922C507.485 110.359 505.132 110.359 503.694 108.922L495.242 100.469L491.146 105.897C490.464 106.8 489.064 106.613 488.642 105.562L478.606 80.4876C478.134 79.3101 479.313 78.1313 480.49 78.6029L505.565 88.6413C506.616 89.0626 506.803 90.4616 505.9 91.1445L500.472 95.2412L500.471 95.2421Z" fill="#333333"/>
<path d="M465.916 67.7603C465.406 67.25 465.406 66.4245 465.916 65.9142C466.426 65.4053 467.252 65.4053 467.761 65.9142L475.758 73.9116C476.267 74.4204 476.267 75.2463 475.758 75.7562C475.248 76.2665 474.422 76.2665 473.912 75.7562L465.916 67.7603Z" fill="#333333"/>
<path d="M478.892 61.3038C478.892 60.5835 479.475 60 480.197 60C480.917 60 481.501 60.5835 481.501 61.3038V72.6128C481.501 73.333 480.917 73.9165 480.197 73.9165C479.476 73.9165 478.892 73.333 478.892 72.6128V61.3038Z" fill="#333333"/>
<path d="M492.634 65.9142C493.144 65.4053 493.97 65.4053 494.479 65.9142C494.989 66.4245 494.989 67.25 494.479 67.7603L486.482 75.7563C485.974 76.2666 485.147 76.2666 484.638 75.7563C484.128 75.2461 484.128 74.4205 484.638 73.9117L492.634 65.9142Z" fill="#333333"/>
<path d="M461.305 81.5C460.585 81.5 460 80.9151 460 80.1949C460 79.4747 460.585 78.8898 461.305 78.8898H472.613C473.334 78.8898 473.918 79.4747 473.918 80.1949C473.918 80.9151 473.335 81.5 472.613 81.5H461.305Z" fill="#333333"/>
<path d="M467.761 94.4787C467.252 94.9875 466.426 94.9875 465.916 94.4787C465.406 93.9684 465.406 93.1429 465.916 92.6326L473.912 84.6366C474.422 84.1277 475.248 84.1277 475.758 84.6366C476.267 85.1468 476.267 85.9724 475.758 86.4826L467.761 94.4787Z" fill="#333333"/>
</svg>
