<svg width="222" height="184" viewBox="0 0 222 184" fill="none" xmlns="http://www.w3.org/2000/svg">
<path d="M190.572 20.7634H111.696V99.6387H190.572V20.7634Z" stroke="#E1E5F0" stroke-width="2.17647"/>
<path d="M115.048 17.3683H108.301V24.1154H115.048V17.3683Z" fill="#E1E5F0"/>
<path d="M115.048 96.2869H108.301V103.034H115.048V96.2869Z" fill="#D8DEED"/>
<path d="M193.967 17.3681H187.22V24.1151H193.967V17.3681Z" fill="#CCF2FF"/>
<path d="M193.967 96.2869H187.22V103.034H193.967V96.2869Z" fill="#CCF2FF"/>
<path d="M203.935 48.2741H166.108C163.235 48.2741 160.885 45.9235 160.885 43.0506V5.22353C160.885 2.35059 163.235 0 166.108 0H203.935C206.808 0 209.159 2.35059 209.159 5.22353V43.0506C209.159 45.9235 206.808 48.2741 203.935 48.2741Z" fill="#E1E5F0"/>
<path d="M197.667 23.5372V22.8966C197.667 21.935 198.447 21.1554 199.408 21.1554C200.37 21.1554 201.149 21.935 201.149 22.8966V34.7366C201.149 35.6982 200.37 36.4778 199.408 36.4778C198.684 36.4778 198.063 36.0357 197.801 35.4066C196.727 36.0847 195.456 36.4778 194.098 36.4778C190.263 36.4778 187.133 33.3476 187.133 29.5131C187.133 25.6785 190.263 22.5483 194.098 22.5483C195.4 22.5483 196.622 22.9097 197.667 23.5372ZM175.581 23.0272H180.172L177.75 14.6444L175.581 23.0272ZM174.68 26.5095L172.495 34.9551C172.254 35.886 171.304 36.4455 170.373 36.2046C169.442 35.9637 168.883 35.0138 169.124 34.0828L174.611 12.8746C175.452 9.69687 179.89 9.6576 180.84 12.7933L186.977 34.0356C187.244 34.9595 186.712 35.9248 185.788 36.1917C184.864 36.4586 183.899 35.9261 183.632 35.0023L181.178 26.5095H174.68ZM194.098 32.9954C196.009 32.9954 197.58 31.4244 197.58 29.5131C197.58 27.6017 196.009 26.0307 194.098 26.0307C192.186 26.0307 190.615 27.6017 190.615 29.5131C190.615 31.4244 192.186 32.9954 194.098 32.9954Z" fill="#F2F6FB"/>
<path d="M184.275 165.719L155.69 147.303C155.308 147.569 155.308 147.569 154.965 147.873L165.651 180.033C165.651 180.033 169.849 179.464 173.093 177.641L177.94 183.868L185 178.439L180.153 172.174C181.527 170.009 182.901 167.845 184.275 165.719Z" fill="#E1E5F0"/>
<path d="M161.059 66.7727C161.059 64.3694 163.009 62.4211 165.41 62.4211H205.369L221.565 78.4401V129.021C221.565 131.425 219.62 133.374 217.213 133.374H165.41C163.007 133.374 161.059 131.421 161.059 129.023V66.7727Z" fill="#F2F6FB"/>
<path d="M191.859 110.362H173.145C172.808 110.362 172.684 110.135 172.868 109.85L185.772 89.9403C185.955 89.6574 186.259 89.6544 186.447 89.927L195.701 103.524L199.665 97.3725C199.847 97.0893 200.156 97.0773 200.356 97.3482L209.62 109.869C209.819 110.139 209.707 110.36 209.371 110.363L200.923 110.443L191.859 110.362ZM199.955 93.0486C198.326 93.0486 197.006 91.7685 197.006 90.1894C197.006 88.6104 198.326 87.3302 199.955 87.3302C201.585 87.3302 202.905 88.6104 202.905 90.1894C202.905 91.7685 201.585 93.0486 199.955 93.0486Z" fill="#E1E5F0"/>
<path d="M205.369 62.4212L221.565 78.4402L206.273 81.1689C203.907 81.5911 202.323 80.009 202.732 77.6453L205.369 62.4212Z" fill="#E1E5F0"/>
<path d="M132.773 149.962H9.21012C4.35817 149.962 0.395752 145.73 0.395752 140.549V53.634C0.395752 48.4528 4.35817 44.2214 9.21012 44.2214H132.773C137.625 44.2214 141.587 48.4528 141.587 53.634V140.506C141.587 145.73 137.625 149.962 132.773 149.962Z" fill="#F2F6FB"/>
<path d="M41.0182 102.921C47.4906 102.921 52.7376 97.766 52.7376 91.4067C52.7376 85.0473 47.4906 79.8921 41.0182 79.8921C34.5457 79.8921 29.2987 85.0473 29.2987 91.4067C29.2987 97.766 34.5457 102.921 41.0182 102.921Z" fill="#445FFC"/>
<path d="M70.0377 102.921C76.5102 102.921 81.7572 97.766 81.7572 91.4067C81.7572 85.0473 76.5102 79.8921 70.0377 79.8921C63.5652 79.8921 58.3182 85.0473 58.3182 91.4067C58.3182 97.766 63.5652 102.921 70.0377 102.921Z" fill="#3ABF7C"/>
<path d="M99.0573 102.921C105.53 102.921 110.777 97.766 110.777 91.4067C110.777 85.0473 105.53 79.8921 99.0573 79.8921C92.5849 79.8921 87.3379 85.0473 87.3379 91.4067C87.3379 97.766 92.5849 102.921 99.0573 102.921Z" fill="#445FFC"/>
<path d="M110.537 121.564H31.771C30.5597 121.564 29.5778 122.546 29.5778 123.757C29.5778 124.968 30.5597 125.95 31.771 125.95H110.537C111.748 125.95 112.73 124.968 112.73 123.757C112.73 122.546 111.748 121.564 110.537 121.564Z" fill="#E1E5F0"/>
<path d="M110.4 112.791H31.9081C30.6211 112.791 29.5778 113.834 29.5778 115.121C29.5778 116.408 30.6211 117.452 31.9081 117.452H110.4C111.687 117.452 112.73 116.408 112.73 115.121C112.73 113.834 111.687 112.791 110.4 112.791Z" fill="#E1E5F0"/>
<path d="M0 49.7348C0 46.4037 2.69974 43.7034 6.03356 43.7034H135.437C138.769 43.7034 141.471 46.403 141.471 49.7348V55.7663H0V49.7348Z" fill="#E1E5F0"/>
<path d="M8.23164 52.4764C9.69565 52.4764 10.8825 51.3103 10.8825 49.8719C10.8825 48.4335 9.69565 47.2674 8.23164 47.2674C6.76763 47.2674 5.58081 48.4335 5.58081 49.8719C5.58081 51.3103 6.76763 52.4764 8.23164 52.4764Z" fill="#FF5645"/>
<path d="M16.8817 52.4764C18.3457 52.4764 19.5325 51.3103 19.5325 49.8719C19.5325 48.4335 18.3457 47.2674 16.8817 47.2674C15.4177 47.2674 14.2308 48.4335 14.2308 49.8719C14.2308 51.3103 15.4177 52.4764 16.8817 52.4764Z" fill="#445FFC"/>
<path d="M25.8107 52.4764C27.2748 52.4764 28.4616 51.3103 28.4616 49.8719C28.4616 48.4335 27.2748 47.2674 25.8107 47.2674C24.3467 47.2674 23.1599 48.4335 23.1599 49.8719C23.1599 51.3103 24.3467 52.4764 25.8107 52.4764Z" fill="#3ABF7C"/>
</svg>
