<svg width="454" height="110" viewBox="0 0 454 110" fill="none" xmlns="http://www.w3.org/2000/svg">
<path d="M34.1558 73.578V37.948H68.615V73.578H56.8063V44.7177L59.4022 47.2627H43.3687L45.9646 44.7177V73.578H34.1558ZM93.0359 74.087C90.6266 74.087 88.6245 73.578 87.0297 72.56C85.4687 71.5081 84.315 69.9302 83.5685 67.8263C82.8219 65.6885 82.4487 62.9738 82.4487 59.6823C82.4487 56.3229 82.788 53.5913 83.4667 51.4874C84.1793 49.3496 85.316 47.7717 86.877 46.7537C88.4379 45.7357 90.4909 45.2267 93.0359 45.2267C95.4791 45.2267 97.7187 45.8206 99.7547 47.0082C101.791 48.162 103.419 49.8247 104.641 51.9964C105.863 54.1342 106.473 56.6962 106.473 59.6823C106.473 62.6684 105.863 65.2474 104.641 67.4191C103.419 69.5569 101.791 71.2027 99.7547 72.3564C97.7187 73.5101 95.4791 74.087 93.0359 74.087ZM74.4574 83.4526V45.7357H85.4009V49.5023L85.4518 59.6823L85.9608 69.8623V83.4526H74.4574ZM90.2873 65.1286C91.1356 65.1286 91.8991 64.925 92.5778 64.5178C93.2564 64.1106 93.7994 63.4998 94.2066 62.6854C94.6138 61.871 94.8174 60.87 94.8174 59.6823C94.8174 58.4607 94.6138 57.4427 94.2066 56.6283C93.7994 55.8139 93.2564 55.2031 92.5778 54.7959C91.8991 54.3887 91.1356 54.1851 90.2873 54.1851C89.4389 54.1851 88.6754 54.3887 87.9968 54.7959C87.3181 55.2031 86.7752 55.8139 86.368 56.6283C85.9608 57.4427 85.7572 58.4607 85.7572 59.6823C85.7572 60.87 85.9608 61.871 86.368 62.6854C86.7752 63.4998 87.3181 64.1106 87.9968 64.5178C88.6754 64.925 89.4389 65.1286 90.2873 65.1286ZM124.55 74.087C121.395 74.087 118.595 73.4762 116.152 72.2546C113.743 70.9991 111.842 69.2854 110.451 67.1137C109.06 64.942 108.364 62.4479 108.364 59.6314C108.364 56.8149 109.06 54.3209 110.451 52.1491C111.842 49.9774 113.743 48.2807 116.152 47.0591C118.595 45.8375 121.395 45.2267 124.55 45.2267C127.706 45.2267 130.506 45.8375 132.949 47.0591C135.392 48.2807 137.292 49.9774 138.65 52.1491C140.041 54.3209 140.737 56.8149 140.737 59.6314C140.737 62.4479 140.041 64.942 138.65 67.1137C137.292 69.2854 135.392 70.9991 132.949 72.2546C130.506 73.4762 127.706 74.087 124.55 74.087ZM124.55 65.1286C125.399 65.1286 126.162 64.925 126.841 64.5178C127.52 64.1106 128.063 63.4998 128.47 62.6854C128.877 61.8371 129.081 60.8191 129.081 59.6314C129.081 58.4098 128.877 57.4088 128.47 56.6283C128.063 55.8139 127.52 55.2031 126.841 54.7959C126.162 54.3887 125.399 54.1851 124.55 54.1851C123.702 54.1851 122.939 54.3887 122.26 54.7959C121.581 55.2031 121.038 55.8139 120.631 56.6283C120.224 57.4088 120.02 58.4098 120.02 59.6314C120.02 60.8191 120.224 61.8371 120.631 62.6854C121.038 63.4998 121.581 64.1106 122.26 64.5178C122.939 64.925 123.702 65.1286 124.55 65.1286ZM144.296 73.578V45.7357H159.922C163.655 45.7357 166.556 46.3805 168.626 47.6699C170.696 48.9255 171.731 50.707 171.731 53.0144C171.731 55.254 170.781 57.0525 168.88 58.4098C166.98 59.7332 164.418 60.3949 161.194 60.3949L162.06 58.0535C165.487 58.0535 168.083 58.6813 169.847 59.9368C171.646 61.1923 172.545 63.0247 172.545 65.434C172.545 67.9111 171.561 69.8962 169.593 71.3893C167.659 72.8484 164.707 73.578 160.736 73.578H144.296ZM154.374 66.452H159.718C160.567 66.452 161.194 66.2654 161.602 65.8921C162.009 65.5188 162.212 65.0098 162.212 64.3651C162.212 63.6864 162.009 63.1944 161.602 62.889C161.194 62.5497 160.567 62.38 159.718 62.38H154.374V66.452ZM154.374 56.7301H158.904C159.786 56.7301 160.414 56.5604 160.787 56.2211C161.194 55.8818 161.398 55.3897 161.398 54.745C161.398 54.0664 161.194 53.5913 160.787 53.3198C160.414 53.0144 159.786 52.8617 158.904 52.8617H154.374V56.7301ZM192.544 73.578V68.6407L191.73 67.3173V57.9517C191.73 56.5944 191.305 55.5594 190.457 54.8468C189.643 54.1342 188.302 53.7779 186.436 53.7779C185.18 53.7779 183.908 53.9815 182.619 54.3887C181.329 54.762 180.226 55.2879 179.31 55.9666L175.645 48.3825C177.274 47.3645 179.225 46.5841 181.499 46.0411C183.772 45.4982 185.995 45.2267 188.167 45.2267C192.951 45.2267 196.65 46.2956 199.263 48.4334C201.91 50.5712 203.233 53.9646 203.233 58.6134V73.578H192.544ZM184.655 74.087C182.381 74.087 180.481 73.6968 178.954 72.9163C177.427 72.1358 176.273 71.1009 175.493 69.8114C174.712 68.488 174.322 67.0289 174.322 65.434C174.322 63.6355 174.78 62.1085 175.696 60.853C176.612 59.5975 178.004 58.6473 179.87 58.0026C181.77 57.3579 184.162 57.0355 187.047 57.0355H192.849V62.5836H188.879C187.658 62.5836 186.758 62.7872 186.182 63.1944C185.639 63.5677 185.367 64.1445 185.367 64.925C185.367 65.5697 185.605 66.1127 186.08 66.5538C186.589 66.961 187.267 67.1646 188.116 67.1646C188.896 67.1646 189.609 66.961 190.254 66.5538C190.932 66.1127 191.424 65.434 191.73 64.5178L193.206 67.9281C192.765 69.998 191.831 71.542 190.406 72.56C188.981 73.578 187.064 74.087 184.655 74.087ZM207.921 73.578V45.7357H219.373V58.308L228.993 45.7357H239.58V73.578H228.128V60.9548L218.559 73.578H207.921ZM222.987 43.4452C219.424 43.4452 216.828 42.7326 215.199 41.3074C213.604 39.8483 212.807 37.5917 212.807 34.5377H220.187C220.187 35.5897 220.374 36.421 220.747 37.0318C221.121 37.6087 221.85 37.8971 222.936 37.8971C223.988 37.8971 224.718 37.6087 225.125 37.0318C225.566 36.421 225.786 35.5897 225.786 34.5377H233.269C233.269 37.5917 232.437 39.8483 230.775 41.3074C229.146 42.7326 226.55 43.4452 222.987 43.4452ZM264.396 68.6407V54.6941H258.644L258.593 56.4247C258.559 57.6124 258.492 58.7152 258.39 59.7332C258.322 60.7512 258.169 61.6674 257.932 62.4818C257.694 63.2623 257.338 63.9579 256.863 64.5687C256.422 65.1456 255.794 65.6206 254.98 65.9939L243.731 64.5687C244.613 64.5687 245.342 64.3481 245.919 63.907C246.496 63.4319 246.937 62.7872 247.243 61.9728C247.582 61.1245 247.82 60.1574 247.955 59.0715C248.125 57.9856 248.227 56.8149 248.261 55.5594L248.617 45.7357H275.848V68.6407H264.396ZM242.916 79.0752V64.5687H279.564V79.0752H268.926V73.578H253.554V79.0752H242.916ZM297.944 74.087C294.55 74.087 291.581 73.4592 289.036 72.2037C286.525 70.9482 284.574 69.2345 283.183 67.0628C281.792 64.8571 281.096 62.38 281.096 59.6314C281.096 56.8149 281.775 54.3209 283.132 52.1491C284.523 49.9774 286.407 48.2807 288.782 47.0591C291.191 45.8375 293.889 45.2267 296.875 45.2267C299.624 45.2267 302.152 45.7697 304.459 46.8555C306.8 47.9414 308.667 49.5532 310.058 51.691C311.483 53.8288 312.196 56.4756 312.196 59.6314C312.196 60.0386 312.179 60.4967 312.145 61.0057C312.111 61.4808 312.077 61.9219 312.043 62.3291H290.614V56.781H305.935L301.609 58.2571C301.609 57.1712 301.405 56.255 300.998 55.5085C300.625 54.7281 300.099 54.1342 299.42 53.727C298.741 53.2859 297.927 53.0653 296.977 53.0653C296.027 53.0653 295.195 53.2859 294.483 53.727C293.804 54.1342 293.278 54.7281 292.905 55.5085C292.531 56.255 292.345 57.1712 292.345 58.2571V59.9877C292.345 61.1754 292.582 62.1934 293.057 63.0417C293.532 63.89 294.211 64.5348 295.093 64.9759C295.976 65.3831 297.045 65.5867 298.3 65.5867C299.59 65.5867 300.642 65.417 301.456 65.0777C302.304 64.7384 303.187 64.2294 304.103 63.5507L310.109 69.6078C308.752 71.0669 307.072 72.1867 305.07 72.9672C303.102 73.7137 300.726 74.087 297.944 74.087ZM334.91 74.087C332.501 74.087 330.499 73.578 328.904 72.56C327.343 71.5081 326.189 69.9302 325.443 67.8263C324.696 65.6885 324.323 62.9738 324.323 59.6823C324.323 56.3229 324.662 53.5913 325.341 51.4874C326.053 49.3496 327.19 47.7717 328.751 46.7537C330.312 45.7357 332.365 45.2267 334.91 45.2267C337.353 45.2267 339.593 45.8206 341.629 47.0082C343.665 48.162 345.293 49.8247 346.515 51.9964C347.737 54.1342 348.347 56.6962 348.347 59.6823C348.347 62.6684 347.737 65.2474 346.515 67.4191C345.293 69.5569 343.665 71.2027 341.629 72.3564C339.593 73.5101 337.353 74.087 334.91 74.087ZM316.331 83.4526V45.7357H327.275V49.5023L327.326 59.6823L327.835 69.8623V83.4526H316.331ZM332.161 65.1286C333.01 65.1286 333.773 64.925 334.452 64.5178C335.13 64.1106 335.673 63.4998 336.081 62.6854C336.488 61.871 336.691 60.87 336.691 59.6823C336.691 58.4607 336.488 57.4427 336.081 56.6283C335.673 55.8139 335.13 55.2031 334.452 54.7959C333.773 54.3887 333.01 54.1851 332.161 54.1851C331.313 54.1851 330.549 54.3887 329.871 54.7959C329.192 55.2031 328.649 55.8139 328.242 56.6283C327.835 57.4427 327.631 58.4607 327.631 59.6823C327.631 60.87 327.835 61.871 328.242 62.6854C328.649 63.4998 329.192 64.1106 329.871 64.5178C330.549 64.925 331.313 65.1286 332.161 65.1286ZM367.612 73.578V68.6407L366.797 67.3173V57.9517C366.797 56.5944 366.373 55.5594 365.525 54.8468C364.711 54.1342 363.37 53.7779 361.504 53.7779C360.248 53.7779 358.976 53.9815 357.686 54.3887C356.397 54.762 355.294 55.2879 354.378 55.9666L350.713 48.3825C352.342 47.3645 354.293 46.5841 356.567 46.0411C358.84 45.4982 361.063 45.2267 363.235 45.2267C368.019 45.2267 371.718 46.2956 374.331 48.4334C376.977 50.5712 378.301 53.9646 378.301 58.6134V73.578H367.612ZM359.722 74.087C357.449 74.087 355.549 73.6968 354.022 72.9163C352.495 72.1358 351.341 71.1009 350.56 69.8114C349.78 68.488 349.39 67.0289 349.39 65.434C349.39 63.6355 349.848 62.1085 350.764 60.853C351.68 59.5975 353.071 58.6473 354.938 58.0026C356.838 57.3579 359.23 57.0355 362.115 57.0355H367.917V62.5836H363.947C362.726 62.5836 361.826 62.7872 361.249 63.1944C360.706 63.5677 360.435 64.1445 360.435 64.925C360.435 65.5697 360.673 66.1127 361.148 66.5538C361.657 66.961 362.335 67.1646 363.184 67.1646C363.964 67.1646 364.677 66.961 365.321 66.5538C366 66.1127 366.492 65.434 366.797 64.5178L368.274 67.9281C367.832 69.998 366.899 71.542 365.474 72.56C364.049 73.578 362.132 74.087 359.722 74.087ZM382.988 73.578V45.7357H395.154L404.01 63.0926H399.226L409.253 45.7357H420.044L420.145 73.578H409.813L409.762 56.8319L411.543 58.0535L403.857 71.3893H399.022L391.336 57.1882L393.321 56.6792V73.578H382.988Z" fill="white"/>
<rect x="8.27094" y="9.79011" width="437.458" height="92.4581" stroke="white" stroke-width="1.45811" stroke-dasharray="5.1 5.1"/>
<rect x="0.729055" y="2.70632" width="16.0392" height="16.0392" fill="white" stroke="white" stroke-width="1.45811"/>
<rect x="0.729055" y="93.1092" width="16.0392" height="16.0392" fill="white" stroke="white" stroke-width="1.45811"/>
<rect x="436.729" y="93.1092" width="16.0392" height="16.0392" fill="white" stroke="white" stroke-width="1.45811"/>
<rect x="436.729" y="1.24822" width="16.0392" height="16.0392" fill="white" stroke="white" stroke-width="1.45811"/>
</svg>
