<svg width="50" height="51" viewBox="0 0 50 51" fill="none" xmlns="http://www.w3.org/2000/svg">
<path fill-rule="evenodd" clip-rule="evenodd" d="M40.4716 35.7612L48.9224 44.212C50.3601 45.6497 50.3601 48.0032 48.9224 49.4408C47.4847 50.8785 45.1323 50.8785 43.6946 49.4408L35.2424 40.9886L31.1457 46.4159C30.4642 47.3188 29.0639 47.1322 28.6425 46.081L18.6059 21.0068C18.1343 19.8293 19.3132 18.6504 20.4906 19.122L45.5649 29.1605C46.616 29.5818 46.803 30.9808 45.8997 31.6636L40.4724 35.7603L40.4716 35.7612Z" fill="#FBFBFB"/>
<path d="M5.91571 8.27946C5.40546 7.7692 5.40546 6.94364 5.91571 6.43337C6.42596 5.92451 7.25152 5.92451 7.76036 6.43337L15.7577 14.4307C16.2666 14.9396 16.2666 15.7655 15.7577 16.2754C15.2475 16.7857 14.4219 16.7857 13.9117 16.2754L5.91571 8.27946Z" fill="#FBFBFB"/>
<path d="M18.892 1.82292C18.892 1.1027 19.4755 0.519165 20.1971 0.519165C20.9173 0.519165 21.5008 1.10267 21.5008 1.82292V13.1319C21.5008 13.8521 20.9173 14.4357 20.1971 14.4357C19.4758 14.4357 18.892 13.8522 18.892 13.1319V1.82292Z" fill="#FBFBFB"/>
<path d="M32.634 6.43337C33.1442 5.92451 33.9698 5.92451 34.4786 6.43337C34.9889 6.94363 34.9889 7.76918 34.4786 8.27946L26.4826 16.2755C25.9737 16.7857 25.1468 16.7857 24.6379 16.2755C24.1277 15.7652 24.1277 14.9397 24.6379 14.4308L32.634 6.43337Z" fill="#FBFBFB"/>
<path d="M1.3051 22.0192C0.584879 22.0192 0 21.4343 0 20.7141C0 19.9939 0.584897 19.409 1.3051 19.409H12.6132C13.3345 19.409 13.9183 19.9939 13.9183 20.7141C13.9183 21.4343 13.3348 22.0192 12.6132 22.0192H1.3051Z" fill="#FBFBFB"/>
<path d="M7.76036 34.9978C7.2515 35.5067 6.42562 35.5067 5.91571 34.9978C5.40546 34.4876 5.40546 33.662 5.91571 33.1518L13.9117 25.1557C14.422 24.6469 15.2476 24.6469 15.7578 25.1557C16.2667 25.666 16.2667 26.4915 15.7578 27.0018L7.76036 34.9978Z" fill="#FBFBFB"/>
</svg>
