<svg width="163" height="314" viewBox="0 0 163 314" fill="none" xmlns="http://www.w3.org/2000/svg">
<path d="M153.421 0L9.77412 0C4.55239 0 0.319336 4.23305 0.319336 9.45479L0.319336 304.238C0.319336 309.46 4.55239 313.693 9.77412 313.693H153.421C158.643 313.693 162.876 309.46 162.876 304.238V9.45479C162.876 4.23305 158.643 0 153.421 0Z" fill="#E1E5F0"/>
<path d="M82.6396 303.306C88.9701 303.306 94.102 298.19 94.102 291.88C94.102 285.569 88.9701 280.454 82.6396 280.454C76.309 280.454 71.1771 285.569 71.1771 291.88C71.1771 298.19 76.309 303.306 82.6396 303.306Z" fill="#E0E7EC"/>
<path d="M90.9863 18.6973L74.2939 18.6973C72.5728 18.6973 71.1777 20.0925 71.1777 21.8134C71.1777 23.5344 72.5728 24.9295 74.2939 24.9295L90.9863 24.9295C92.7074 24.9295 94.1025 23.5344 94.1025 21.8134C94.1025 20.0925 92.7074 18.6973 90.9863 18.6973Z" fill="#445FFC"/>
<path d="M145.371 35.3165L17.8234 35.3165C15.062 35.3165 12.8234 37.5551 12.8234 40.3165L12.8234 271.299C12.8234 274.06 15.062 276.299 17.8234 276.299H145.371C148.133 276.299 150.371 274.06 150.371 271.299V40.3165C150.371 37.5551 148.133 35.3165 145.371 35.3165Z" fill="#F2F6FB"/>
<path d="M83.9646 176.218L81.7055 176.247L81.7234 176.218H52.7398C51.6968 176.218 51.2961 175.508 51.8514 174.622L72.1231 142.269C72.6755 141.388 73.597 141.386 74.1693 142.248L88.9362 164.683L94.3769 155.983C94.9323 155.095 95.8647 155.07 96.4546 155.922L109.052 174.107C109.644 174.961 109.285 175.68 108.227 175.713L97.3145 176.048L96.0539 176.064L96.1466 176.218C96.1466 176.218 95.302 176.218 94.2579 176.218H83.9646ZM95.8616 146.82C93.1872 146.82 91.0191 144.647 91.0191 141.966C91.0191 139.285 93.1872 137.111 95.8616 137.111C98.5361 137.111 100.704 139.285 100.704 141.966C100.704 144.647 98.5361 146.82 95.8616 146.82Z" fill="#E1E5F0"/>
</svg>
