<svg width="342" height="80" viewBox="0 0 342 80" fill="none" xmlns="http://www.w3.org/2000/svg">
<path fill-rule="evenodd" clip-rule="evenodd" d="M87.2732 78.5471C18.5709 54.1959 20.4472 36.0269 92.9015 24.0391C92.9015 24.0391 -112.323 32.9606 87.2732 78.5471Z" fill="#445FFC"/>
<path fill-rule="evenodd" clip-rule="evenodd" d="M14.0894 0.518957C85.0624 16.7688 85.2244 35.037 14.5756 55.3247C14.5756 55.3247 217.477 22.7312 14.0894 0.518957Z" fill="#33CC33"/>
<path d="M174.702 44.8612H173.886L173.642 45.6122L170.003 56.8019L169.999 56.8148C169.645 57.9496 169.314 59.0904 169.022 60.1119C168.629 59.0708 168.218 57.9918 167.767 56.8392L167.753 56.8057L162.869 45.5206L162.584 44.8612H161.844H153.271H151.487L152.276 46.401L163.59 68.4477L163.591 68.4471C163.665 68.6063 163.723 68.7438 163.737 68.8436L163.741 68.8478C163.744 68.8675 163.736 68.8962 163.711 68.9389L163.682 68.9895L163.65 69.0683C163.399 69.689 162.917 70.3222 162.236 70.7728C161.677 71.142 160.976 71.3845 160.149 71.3845C159.623 71.3845 159.188 71.3633 158.829 71.3264C158.476 71.2913 158.178 71.2401 157.922 71.1795L156.67 70.88L156.554 72.1182L156.005 77.9272L155.929 78.7431L156.727 79.0238C157.256 79.211 157.822 79.3579 158.51 79.4613C159.18 79.5608 159.935 79.6147 160.847 79.6147C163.003 79.6147 164.855 79.1666 166.474 78.3568C168.081 77.5538 169.442 76.399 170.633 74.9764L170.632 74.976C171.941 73.4243 173.131 71.4016 174.254 69.1271C175.36 66.8854 176.403 64.4034 177.43 61.8878V61.8836L183.709 46.313L184.295 44.8612H182.676H174.702Z" fill="#445FFC"/>
<path d="M207.162 52.9499V44.8616H184.604V79.0908H185.716H193.341H194.454V78.0235V52.9499H206.05H207.162Z" fill="#445FFC"/>
<path d="M287.946 69.2074C286.783 70.7799 285.108 71.7175 282.999 71.7175C280.873 71.7175 279.157 70.8038 277.963 69.2378C276.656 67.5248 275.937 65.0338 275.937 62.0712C275.937 59.0937 276.65 56.527 277.971 54.7543C279.146 53.1763 280.834 52.2351 282.949 52.2351C285.06 52.2351 286.725 53.1947 287.889 54.7307C289.246 56.5201 289.96 59.0862 289.96 61.8809C289.96 64.8644 289.258 67.4353 287.946 69.2074ZM283.148 44.3377C277.937 44.3377 273.618 46.211 270.569 49.3466C267.453 52.5515 265.689 57.0609 265.689 62.2145C265.689 67.1895 267.341 71.6362 270.395 74.7947C273.296 77.7935 277.435 79.6147 282.6 79.6147C287.879 79.6147 292.321 77.8639 295.435 74.6721C298.465 71.5673 300.209 67.1273 300.209 61.6428C300.209 56.7603 298.575 52.2855 295.45 49.1041C292.557 46.1589 288.418 44.3377 283.148 44.3377Z" fill="#445FFC"/>
<path d="M135.628 26.8374L132.335 17.4853L129.017 26.8159L113.289 71.0516L110.435 79.0779H116.587H119.729H121.995L123.042 76.0944L132.247 49.8546L141.488 76.0944L142.539 79.0779H144.801H147.893H154.025L151.206 71.0735L135.628 26.8374Z" fill="#445FFC"/>
<path d="M341.271 77.965L339.426 45.8711L339.368 44.8616H327.594L327.345 45.6042L323.756 56.2705L323.748 56.2957C323.233 57.9729 322.71 59.7872 322.202 61.6203C322.011 62.3092 321.822 63.0071 321.633 63.7058C321.507 63.1761 321.376 62.6443 321.243 62.1131C320.739 60.1096 320.218 58.185 319.706 56.3681L319.697 56.3429L316.407 45.6296L316.172 44.8616H315.343H305.226H304.185L304.118 45.8627L301.976 77.9569L301.899 79.0908H303.083H310.11H311.168L311.218 78.073L311.815 65.8963H311.816C311.917 64.2828 312.002 62.4787 312.081 60.61C312.501 62.2543 312.942 63.8603 313.377 65.3553L316.965 77.7833L317.192 78.5676H318.034H323.965H324.78L325.025 77.8168L329.106 65.3096L329.108 65.3102C329.69 63.6195 330.312 61.6985 330.929 59.6706C330.986 61.8573 331.058 63.9167 331.13 65.7758L331.628 78.0607L331.67 79.0908H332.737H340.162H341.335L341.271 77.965Z" fill="#445FFC"/>
<path d="M218.902 55.6769C219.112 56.4368 219.325 57.177 219.538 57.8525H219.539L221.21 63.2895H216.735L218.332 57.8361C218.526 57.1773 218.716 56.4405 218.902 55.6769ZM225.201 45.6125L224.957 44.8616H213.354L213.113 45.6171L202.846 77.7109L202.404 79.0908H203.906H211.781H212.621L212.85 78.307L215.014 70.8531H222.965L225.318 78.3326L225.558 79.0908H226.383H234.556H236.066L235.616 77.7065L225.201 45.6125Z" fill="#445FFC"/>
<path d="M263.303 69.2712C263.197 68.9626 263.083 68.6312 262.72 67.5905L262.716 67.5826C261.974 65.5333 261.078 63.7394 259.772 62.298C258.739 61.1565 257.47 60.2487 255.851 59.6242L266.574 46.5887L267.995 44.8616H265.705H256.486H255.895L255.564 45.3372L247.68 56.6772V45.9299V44.8616H246.567H239.042H237.93V45.9299V78.0235V79.0908H239.042H246.567H247.68V78.0235V65.6634H248.013C249.694 65.6634 250.839 66.2154 251.67 67.1297C252.585 68.1346 253.199 69.6036 253.731 71.2848L253.735 71.3012C253.941 71.9173 254.108 72.441 254.274 72.9653C254.872 74.851 255.472 76.7405 256.392 78.4989L256.702 79.0908H257.382H265.556H267.319L266.555 77.5643C265.263 74.9801 264.284 72.1271 263.303 69.2712Z" fill="#445FFC"/>
</svg>
