<svg width="237" height="9" viewBox="0 0 237 9" fill="none" xmlns="http://www.w3.org/2000/svg">
<path d="M1.89096 0L14.7815 0C15.8259 0 16.6725 0.846611 16.6725 1.89096V6.41879C16.6725 7.46314 15.8259 8.30975 14.7815 8.30975L1.89096 8.30975C0.84661 8.30975 0 7.46314 0 6.41879L0 1.89096C0 0.846611 0.84661 0 1.89096 0ZM176.181 0L234.921 0C235.965 0 236.812 0.846611 236.812 1.89096V6.41879C236.812 7.46314 235.965 8.30975 234.921 8.30975L176.181 8.30975C175.137 8.30975 174.29 7.46314 174.29 6.41879V1.89096C174.29 0.846611 175.137 0 176.181 0ZM63.6418 0L122.382 0C123.426 0 124.273 0.846611 124.273 1.89096V6.41879C124.273 7.46314 123.426 8.30975 122.382 8.30975L63.6418 8.30975C62.5975 8.30975 61.7509 7.46314 61.7509 6.41879V1.89096C61.7509 0.846611 62.5975 0 63.6418 0ZM134.5 0L164.063 0C165.107 0 165.954 0.846611 165.954 1.89096V6.41879C165.954 7.46314 165.107 8.30975 164.063 8.30975L134.5 8.30975C133.456 8.30975 132.609 7.46314 132.609 6.41879V1.89096C132.609 0.846611 133.456 0 134.5 0Z" fill="#E1E5F0"/>
</svg>
