<svg width="249" height="186" viewBox="0 0 249 186" fill="none" xmlns="http://www.w3.org/2000/svg">
<path d="M235.409 0H12.3179C5.5149 0 0 5.5149 0 12.3179V173.682C0 180.485 5.5149 186 12.3179 186H235.409C242.212 186 247.727 180.485 247.727 173.682V12.3179C247.727 5.5149 242.212 0 235.409 0Z" fill="#F2F6FB"/>
<path d="M37.2475 171.529C24.8642 171.529 14.8256 161.389 14.8256 148.88C14.8256 136.372 24.8642 126.232 37.2475 126.232C49.6308 126.232 59.6694 136.372 59.6694 148.88C59.6694 161.389 49.6308 171.529 37.2475 171.529ZM37.2965 148.785C38.951 148.785 40.2923 147.448 40.2923 145.798C40.2923 144.148 38.951 142.811 37.2965 142.811C35.6419 142.811 34.3006 144.148 34.3006 145.798C34.3006 147.448 35.6419 148.785 37.2965 148.785ZM37.2965 150.279C34.2976 150.279 31.8665 152.703 31.8665 155.693H42.7265C42.7265 152.703 40.2954 150.279 37.2965 150.279Z" fill="#D8DEED"/>
<path d="M14.8254 40.7205C14.8254 39.3572 15.9253 38.2519 17.2912 38.2519H174.496C175.858 38.2519 176.962 39.359 176.962 40.7205V108.107C176.962 109.47 175.862 110.575 174.496 110.575H17.2912C15.9293 110.575 14.8254 109.468 14.8254 108.107V40.7205ZM75.7512 144.661H199.495C201.976 144.661 203.988 146.673 203.988 149.155C203.988 151.637 201.976 153.649 199.495 153.649H75.7512C73.2693 153.649 71.2574 151.637 71.2574 149.155C71.2574 146.673 73.2693 144.661 75.7512 144.661ZM75.7512 159.266H221.991C224.473 159.266 226.485 161.278 226.485 163.76C226.485 166.242 224.473 168.254 221.991 168.254H75.7512C73.2693 168.254 71.2574 166.242 71.2574 163.76C71.2574 161.278 73.2693 159.266 75.7512 159.266ZM75.7512 130.057H167.999C170.481 130.057 172.493 132.068 172.493 134.55C172.493 137.032 170.481 139.044 167.999 139.044H75.7512C73.2693 139.044 71.2574 137.032 71.2574 134.55C71.2574 132.068 73.2693 130.057 75.7512 130.057ZM0 10.5193C0 4.70964 4.70926 0 10.5164 0H237.689C243.497 0 248.205 4.70836 248.205 10.5193V21.0386H0V10.5193Z" fill="#E1E5F0"/>
<path d="M196.132 94.7551H225.349C229.718 94.7551 233.259 98.2967 233.259 102.666C233.259 107.034 229.718 110.576 225.349 110.576H196.132C191.763 110.576 188.222 107.034 188.222 102.666C188.222 98.2967 191.763 94.7551 196.132 94.7551Z" fill="#445FFC"/>
<path d="M14.1078 15.3011C16.6169 15.3011 18.651 13.2674 18.651 10.7587C18.651 8.24996 16.6169 6.21625 14.1078 6.21625C11.5986 6.21625 9.56451 8.24996 9.56451 10.7587C9.56451 13.2674 11.5986 15.3011 14.1078 15.3011Z" fill="#FF5645"/>
<path d="M28.9333 15.3011C31.4425 15.3011 33.4766 13.2674 33.4766 10.7587C33.4766 8.24996 31.4425 6.21625 28.9333 6.21625C26.4242 6.21625 24.3901 8.24996 24.3901 10.7587C24.3901 13.2674 26.4242 15.3011 28.9333 15.3011Z" fill="#FFCB3D"/>
<path d="M44.237 15.3011C46.7462 15.3011 48.7803 13.2674 48.7803 10.7587C48.7803 8.24996 46.7462 6.21625 44.237 6.21625C41.7279 6.21625 39.6938 8.24996 39.6938 10.7587C39.6938 13.2674 41.7279 15.3011 44.237 15.3011Z" fill="#3ABF7C"/>
</svg>
